<mxfile host="app.diagrams.net" modified="2024-06-23T20:12:33.086Z" agent="Mozilla/5.0 (Windows NT 10.0; Win64; x64) AppleWebKit/537.36 (KHTML, like Gecko) Chrome/126.0.0.0 Safari/537.36" etag="r_mjr7UtbMbgyGcyrxui" version="24.6.2" type="github">
  <diagram name="Page-1" id="LDOksrUaq20k6TJ6HL2x">
    <mxGraphModel dx="1277" dy="1035" grid="1" gridSize="10" guides="1" tooltips="1" connect="1" arrows="1" fold="1" page="1" pageScale="1" pageWidth="850" pageHeight="1100" math="0" shadow="0">
      <root>
        <mxCell id="0" />
        <mxCell id="1" parent="0" />
      </root>
    </mxGraphModel>
  </diagram>
</mxfile>
